<?xml version="1.0" encoding="iso-8859-1"?>
<!-- Generator: Adobe Illustrator 17.0.0, SVG Export Plug-In . SVG Version: 6.00 Build 0)  -->
<!DOCTYPE svg PUBLIC "-//W3C//DTD SVG 1.1//EN" "http://www.w3.org/Graphics/SVG/1.1/DTD/svg11.dtd">
<svg version="1.1" xmlns="http://www.w3.org/2000/svg" xmlns:xlink="http://www.w3.org/1999/xlink" x="0px" y="0px" width="150px"
	 height="150px" viewBox="0 0 150 150" style="enable-background:new 0 0 150 150;" xml:space="preserve">
<g id="_x33_0x30&#x53C2;&#x8003;&#x7EBF;">
</g>
<g id="&#x4E2D;&#x7EBF;&#x53C2;&#x8003;&#x7EBF;">
</g>
<g id="icons&#x7B2C;&#x4E09;&#x884C;">
	<path style="fill:#49A28E;fill-opacity:0.6;" d="M3.077,66.134v17.515h23.574v-0.788V66.134H3.077z M15.625,75.698h-1.522
		l-8.251-7.991h18.024L15.625,75.698z M10.97,74.891l-6.269,6.07V68.822L10.97,74.891z M12.121,76.003l1.309,1.269h2.867l1.31-1.269
		l6.268,6.07H5.852L12.121,76.003z M18.757,74.891l6.268-6.07v12.14L18.757,74.891z"/>
	<g id="icon_password" style="opacity:0.6;">
		<path style="fill:#4AA994;" d="M56.717,65.679H33.418v15.257h23.298L56.717,65.679L56.717,65.679z M54.971,79.202H35.164v-11.79
			H54.97L54.971,79.202L54.971,79.202z"/>
		<path style="fill:#4AA994;" d="M56.713,81.644H45.397h-0.664H33.418l-3.353,0.167v2.292h30v-2.292L56.713,81.644z M48.36,83.154
			h-6.982v-0.459h6.982V83.154L48.36,83.154z"/>
		<path style="fill:#4AA994;" d="M44.477,73.261c-1.27,4.559,0,0-1.27,4.559c0.161,0,4.332,0,4.332,0s0,0-1.222-4.674
			c0.656-0.363,1.1-1.058,1.1-1.857c0-1.175-0.959-2.127-2.14-2.127c-1.182,0-2.141,0.952-2.141,2.127
			C43.137,72.183,43.691,72.946,44.477,73.261z"/>
	</g>
	<path style="fill:#499C89;" d="M80.068,72.692v-1.629c0-2.97-2.242-5.375-5.006-5.378c-2.766,0.003-5.006,2.407-5.011,5.378v1.629
		h-1.059v11.404h12.141V72.692H80.068z M72.482,71.064c0-1.534,1.153-2.77,2.58-2.77c1.424,0,2.577,1.235,2.577,2.77v1.629h-5.157
		L72.482,71.064L72.482,71.064z M77.4,81.742h-4.677l0.993-2.136c-0.599-0.453-0.993-1.2-0.993-2.05c0-1.386,1.048-2.51,2.339-2.51
		s2.339,1.125,2.339,2.51c0,0.85-0.394,1.596-0.993,2.05L77.4,81.742z"/>
	<g>
		
			<line style="fill:none;stroke:#FFFFFF;stroke-width:1.5;stroke-miterlimit:10;" x1="115.91" y1="74.906" x2="104.927" y2="74.906"/>
		<polygon style="fill:#FFFFFF;" points="110.996,69.956 110.984,69.97 115.263,75.074 111.124,80.014 112.82,80.014 
			116.957,75.078 112.664,69.956 		"/>
		<polygon style="fill:#FFFFFF;" points="109.748,83.49 98.677,83.49 98.677,66.485 109.748,66.485 109.748,64.927 97.206,64.927 
			97.206,84.962 109.748,84.962 		"/>
	</g>
	<g>
		<line style="fill:none;stroke:#FFFFFF;stroke-width:1.5;stroke-miterlimit:10;" x1="143" y1="74.563" x2="125.412" y2="74.563"/>
		
			<line style="fill:none;stroke:#FFFFFF;stroke-width:1.5;stroke-miterlimit:10;" x1="134.952" y1="82.288" x2="125.661" y2="74.529"/>
		
			<line style="fill:none;stroke:#FFFFFF;stroke-width:1.5;stroke-miterlimit:10;" x1="134.998" y1="66.762" x2="125.707" y2="74.521"/>
	</g>
</g>
<g id="icons&#x7B2C;&#x56DB;&#x884C;">
	<g>
		<polygon style="fill:#4AA994;" points="10.377,111.5 13.595,108.282 11.877,106.563 8.658,109.781 7.627,108.75 5.737,114.421 
			11.409,112.532 		"/>
		<polygon style="fill:#4AA994;" points="8.658,100.413 11.877,103.631 13.595,101.912 10.377,98.694 11.409,97.662 5.737,95.773 
			7.627,101.444 		"/>
		<polygon style="fill:#4AA994;" points="19.553,111.35 16.335,108.132 18.054,106.413 21.272,109.631 22.304,108.6 24.193,114.272 
			18.522,112.382 		"/>
		<polygon style="fill:#4AA994;" points="21.272,100.263 18.054,103.481 16.335,101.762 19.553,98.544 18.522,97.512 24.193,95.623 
			22.304,101.294 		"/>
		<rect x="4.623" y="94.412" style="fill:none;stroke:#4AA994;stroke-miterlimit:10;" width="20.702" height="20.932"/>
	</g>
	<polygon style="fill:#4AA994;" points="49.116,98.982 52.334,95.764 54.053,97.483 50.835,100.701 51.866,101.732 46.195,103.622 
		48.084,97.951 	"/>
	<rect x="34.623" y="94.412" style="fill:none;stroke:#4AA994;stroke-miterlimit:10;" width="20.702" height="20.932"/>
	<polygon style="fill:#4AA994;" points="39.553,100.701 36.335,97.483 38.054,95.764 41.272,98.982 42.303,97.951 44.193,103.622 
		38.522,101.733 	"/>
	<polygon style="fill:#4AA994;" points="49.116,110.405 52.334,113.623 54.053,111.904 50.835,108.686 51.866,107.655 
		46.195,105.765 48.084,111.436 	"/>
	<polygon style="fill:#4AA994;" points="39.553,108.686 36.335,111.904 38.054,113.623 41.272,110.405 42.303,111.436 
		44.193,105.765 38.522,107.654 	"/>
</g>
<g id="icons&#x7B2C;&#x4E8C;&#x884C;">
	<g>
		<line style="fill:none;stroke:#49A28E;stroke-width:1.5;stroke-miterlimit:10;" x1="7.572" y1="37.587" x2="22.487" y2="52.502"/>
		<line style="fill:none;stroke:#49A28E;stroke-width:1.5;stroke-miterlimit:10;" x1="7.641" y1="52.433" x2="22.556" y2="37.518"/>
	</g>
	<g>
		<line style="fill:none;stroke:#4AA994;stroke-miterlimit:10;" x1="54.729" y1="44.959" x2="33.101" y2="44.959"/>
		<line style="fill:none;stroke:#4AA994;stroke-miterlimit:10;" x1="44.832" y1="54.458" x2="33.407" y2="44.917"/>
		<line style="fill:none;stroke:#4AA994;stroke-miterlimit:10;" x1="44.889" y1="35.366" x2="33.464" y2="44.907"/>
	</g>
	<g id="&#x56DB;&#x89D2;icon">
		<g id="&#x56FE;&#x5C42;_4">
			<rect x="64.945" y="34.99" style="fill:none;stroke:#FFFFFF;stroke-width:2;stroke-miterlimit:10;" width="20" height="20.068"/>
			
				<rect x="68.762" y="34.99" style="fill:none;stroke:#FFFFFF;stroke-width:2;stroke-miterlimit:10;" width="12.476" height="8.391"/>
			<rect x="75.5" y="34.99" style="fill:none;stroke:#FFFFFF;stroke-width:2;stroke-miterlimit:10;" width="2.764" height="5.2"/>
			<line style="fill:none;stroke:#FFFFFF;stroke-width:2;stroke-miterlimit:10;" x1="68.762" y1="47.573" x2="81.238" y2="47.573"/>
			<line style="fill:none;stroke:#FFFFFF;stroke-width:2;stroke-miterlimit:10;" x1="68.762" y1="51.47" x2="81.238" y2="51.47"/>
		</g>
	</g>
	<g>
		
			<ellipse style="fill:none;stroke:#4AAA94;stroke-width:2.5;stroke-miterlimit:10;" cx="104.527" cy="40.943" rx="6.831" ry="6.573"/>
		
			<line style="fill:none;stroke:#4AAA94;stroke-width:2.5;stroke-miterlimit:10;" x1="113.3" y1="56.215" x2="107.832" y2="46.696"/>
	</g>
	<g id="&#x56FE;&#x5C42;_1_1_">
		<path style="fill:#FFFFFF;stroke:#FFFFFF;stroke-width:1.5;stroke-miterlimit:10;" d="M134.85,33.727
			c-6.218,0-11.275,5.057-11.275,11.274s5.057,11.274,11.275,11.274c6.217,0,11.274-5.057,11.274-11.274
			S141.067,33.727,134.85,33.727z M131.768,42.858l0.023-0.025c0.092-0.067,0.137-0.171,0.12-0.281
			c-0.227-1.366-0.078-1.936-0.028-2.079c0.397-1.218,1.642-1.781,1.887-1.881c0.052-0.02,0.148-0.05,0.245-0.065l0.029-0.006
			l0.201-0.011l0.002,0.012l0.046-0.004c0.042-0.004,0.081-0.01,0.13-0.02l0.044-0.01c0.039,0,0.524,0.062,1.244,0.283l0.501,0.172
			c0.915,0.27,1.337,0.774,1.415,0.875c0.733,0.831,0.537,2.085,0.355,2.758c-0.02,0.079-0.008,0.161,0.037,0.229l0.042,0.051
			c0.053,0.072,0.101,0.351-0.059,0.942c-0.03,0.179-0.096,0.325-0.195,0.424c-0.037,0.04-0.062,0.091-0.071,0.148
			c-0.247,1.453-1.55,3.078-2.921,3.078c-1.164,0-2.493-1.495-2.732-3.077c-0.009-0.059-0.034-0.111-0.075-0.156
			c-0.1-0.103-0.163-0.252-0.201-0.472C131.69,43.33,131.678,42.997,131.768,42.858z M129.155,49.158
			c0.051-0.064,0.332-0.394,0.901-0.611c0.501-0.154,1.738-0.565,2.414-1.055c0.032-0.017,0.063-0.05,0.089-0.077
			c0.063-0.067,0.158-0.17,0.272-0.276l0.063-0.06l0.064,0.06c0.596,0.562,1.255,0.87,1.856,0.87c0.632,0,1.284-0.274,1.885-0.791
			l0.047-0.041l0.128,0.062c0.114,0.105,0.312,0.248,0.404,0.292l0.117,0.057l-0.012,0.013l0.052,0.032
			c0.111,0.067,0.231,0.132,0.374,0.202c0.143,0.063,0.263,0.11,0.387,0.15c0.104,0.034,0.661,0.221,1.294,0.514l0.121,0.036
			c0.619,0.237,0.894,0.566,0.922,0.601c0.734,1.089,1.017,3.122,1.122,4.255c-1.92,1.559-4.335,2.418-6.803,2.418
			c-2.47,0-4.885-0.859-6.804-2.418C128.149,52.262,128.429,50.236,129.155,49.158z M141.002,48.823l-0.039-0.045
			c-0.183-0.228-0.585-0.549-1.17-0.773l-0.093-0.028c-0.586-0.27-1.116-0.454-1.318-0.521l-0.016,0.046l0,0l0.004-0.05
			c-0.126-0.042-0.231-0.086-0.322-0.126c-0.667-0.328-0.752-0.519-0.767-0.563l-0.033-0.076l0.029-0.069
			c0.501-0.626,0.853-1.355,0.988-2.041l0.017-0.042c0.141-0.176,0.23-0.385,0.266-0.614c0.159-0.575,0.166-0.998,0.022-1.293
			l-0.014-0.03l0.008-0.033c0.178-0.744,0.349-2.14-0.506-3.111c-0.135-0.171-0.653-0.749-1.676-1.049l-0.497-0.171
			c-0.828-0.255-1.345-0.31-1.412-0.31l0,0c-0.056,0-0.102,0.005-0.172,0.022l-0.066,0.011c-0.034-0.005-0.072-0.008-0.112-0.008
			c-0.264,0-0.551,0.114-0.564,0.119c-0.286,0.12-1.742,0.792-2.203,2.218c-0.076,0.202-0.233,0.818-0.031,2.168l0.006,0.038
			l-0.024,0.032c-0.207,0.278-0.223,0.729-0.05,1.336c0.044,0.269,0.132,0.483,0.262,0.646l0.022,0.048
			c0.126,0.705,0.44,1.403,0.908,2.016l0.041,0.055l-0.037,0.055c-0.02,0.028-0.034,0.059-0.039,0.082
			c-0.116,0.329-1.406,0.905-2.538,1.251c-0.828,0.313-1.178,0.813-1.178,0.813c-0.702,1.041-1.023,2.793-1.17,4.116
			c-2.218-2.043-3.486-4.933-3.486-7.941c0-5.959,4.848-10.808,10.808-10.808c5.959,0,10.808,4.848,10.808,10.808
			c0,3.009-1.27,5.899-3.488,7.945C142.02,51.614,141.695,49.855,141.002,48.823z"/>
	</g>
</g>
<g id="icons&#x7B2C;&#x4E00;&#x884C;">
	<g>
		<line style="fill:none;stroke:#4AAA94;stroke-width:2;stroke-miterlimit:10;" x1="14.912" y1="24.993" x2="14.927" y2="5.161"/>
		<line style="fill:none;stroke:#4AAA94;stroke-width:2;stroke-miterlimit:10;" x1="4.896" y1="14.5" x2="24.896" y2="14.5"/>
	</g>
	<line style="fill:none;stroke:#4AAA94;stroke-width:3;stroke-miterlimit:10;" x1="34.865" y1="15.014" x2="54.865" y2="15.014"/>
	<g>
		<line style="fill:none;stroke:#4AAA94;stroke-width:2;stroke-miterlimit:10;" x1="66.094" y1="9.014" x2="83.237" y2="9.014"/>
		<line style="fill:none;stroke:#4AAA94;stroke-width:2;stroke-miterlimit:10;" x1="66.094" y1="15.014" x2="83.237" y2="15.014"/>
		<line style="fill:none;stroke:#4AAA94;stroke-width:2;stroke-miterlimit:10;" x1="66.094" y1="21.014" x2="83.237" y2="21.014"/>
	</g>
	<g>
		<line style="fill:none;stroke:#FFFFFF;stroke-width:2;stroke-miterlimit:10;" x1="96.768" y1="9.014" x2="113.911" y2="9.014"/>
		<line style="fill:none;stroke:#FFFFFF;stroke-width:2;stroke-miterlimit:10;" x1="96.768" y1="15.014" x2="113.911" y2="15.014"/>
		<line style="fill:none;stroke:#FFFFFF;stroke-width:2;stroke-miterlimit:10;" x1="96.768" y1="21.014" x2="113.911" y2="21.014"/>
	</g>
	<g>
		<rect x="119.943" y="0.045" style="fill:#49A28E;" width="29.938" height="29.938"/>
		
			<line style="fill:none;stroke:#FBFDFD;stroke-width:1.5;stroke-miterlimit:10;" x1="124.164" y1="15.124" x2="145.792" y2="15.124"/>
		
			<line style="fill:none;stroke:#FBFDFD;stroke-width:1.5;stroke-miterlimit:10;" x1="134.061" y1="5.625" x2="145.486" y2="15.166"/>
		
			<line style="fill:none;stroke:#FBFDFD;stroke-width:1.5;stroke-miterlimit:10;" x1="134.004" y1="24.717" x2="145.429" y2="15.176"/>
	</g>
</g>
</svg>
